<svg xmlns="http://www.w3.org/2000/svg" enable-background="new 0 0 48 48" viewBox="0 0 48 48" id="letter"><path fill="#5a99cc" d="M20.7,9L6.7,43h6.5l3.7-9h14.2l3.7,9h6.5L27.3,9H20.7z M19.4,28L24,16.8L28.6,28H19.4z"></path><polygon fill="#8bcbef" points="22 28 19.4 28 24 16.8 26.7 23.3 31.3 18.7 27.3 9 20.7 9 6.7 43 7 43"></polygon><path fill="#474747" d="M43,10c0.6,0,1-0.4,1-1s-0.4-1-1-1H5C4.4,8,4,8.4,4,9s0.4,1,1,1h14.2l-4.6,11H5c-0.6,0-1,0.4-1,1s0.4,1,1,1h8.9
	L6,42H5c-0.6,0-1,0.4-1,1s0.4,1,1,1h38c0.6,0,1-0.4,1-1s-0.4-1-1-1h-1l-7.9-19H43c0.6,0,1-0.4,1-1s-0.4-1-1-1h-9.7l-4.6-11H43z
	 M14.6,42l2.9-7h12.9l2.9,7H14.6z M39.8,42h-4.3L32,33.6c-0.2-0.4-0.5-0.6-0.9-0.6H16.9c-0.4,0-0.8,0.2-0.9,0.6L12.5,42H8.2l13.3-32
	h5.2L39.8,42z M4,5c0-0.6,0.4-1,1-1h38c0.6,0,1,0.4,1,1s-0.4,1-1,1H5C4.4,6,4,5.6,4,5z M18.5,28.6c0.2,0.3,0.5,0.4,0.8,0.4h9.3
	c0.3,0,0.6-0.2,0.8-0.4s0.2-0.6,0.1-0.9l-4.6-11.2c-0.2-0.4-0.5-0.6-0.9-0.6s-0.8,0.2-0.9,0.6l-4.6,11.2
	C18.3,27.9,18.3,28.3,18.5,28.6z M24,19.4l3.1,7.6h-6.3L24,19.4z"></path></svg>